<svg xmlns="http://www.w3.org/2000/svg" xmlns:xlink="http://www.w3.org/1999/xlink" width="500" zoomAndPan="magnify" viewBox="0 0 375 374.999991" height="500" preserveAspectRatio="xMidYMid meet" version="1.0"><defs><g/><clipPath id="aadcf5aaaf"><path d="M 56.488281 151.464844 L 318.167969 151.464844 L 318.167969 223.464844 L 56.488281 223.464844 Z M 56.488281 151.464844 " clip-rule="nonzero"/></clipPath><clipPath id="c9faca6269"><path d="M 63.558594 158.238281 L 187.332031 158.238281 L 187.332031 216.761719 L 63.558594 216.761719 Z M 63.558594 158.238281 " clip-rule="nonzero"/></clipPath><clipPath id="4c7c71bf48"><path d="M 0.558594 0.238281 L 124.332031 0.238281 L 124.332031 58.761719 L 0.558594 58.761719 Z M 0.558594 0.238281 " clip-rule="nonzero"/></clipPath><clipPath id="58df96cc3f"><rect x="0" width="125" y="0" height="59"/></clipPath></defs><g clip-path="url(#aadcf5aaaf)"><path stroke-linecap="butt" transform="matrix(0.75, 0, 0, 0.75, 56.489269, 151.465449)" fill="none" stroke-linejoin="miter" d="M -0.00131672 -0.000807338 L 348.904956 -0.000807338 L 348.904956 96.092949 L -0.00131672 96.092949 Z M -0.00131672 -0.000807338 " stroke="#000000" stroke-width="6" stroke-opacity="1" stroke-miterlimit="4"/></g><g clip-path="url(#c9faca6269)"><g transform="matrix(1, 0, 0, 1, 63, 158)"><g clip-path="url(#58df96cc3f)"><g clip-path="url(#4c7c71bf48)"><path fill="#000000" d="M 0.558594 0.238281 L 124.238281 0.238281 L 124.238281 58.761719 L 0.558594 58.761719 Z M 0.558594 0.238281 " fill-opacity="1" fill-rule="nonzero"/></g></g></g></g><g fill="#ffffff" fill-opacity="1"><g transform="translate(70.403979, 197.999987)"><g><path d="M 7.375 0.1875 C 6.070312 0.1875 4.957031 -0.078125 4.03125 -0.609375 C 3.113281 -1.148438 2.421875 -1.84375 1.953125 -2.6875 C 1.484375 -3.539062 1.25 -4.4375 1.25 -5.375 L 1.25 -5.484375 L 3.546875 -5.484375 L 3.546875 -5.375 C 3.546875 -4.8125 3.675781 -4.25 3.9375 -3.6875 C 4.195312 -3.125 4.613281 -2.648438 5.1875 -2.265625 C 5.769531 -1.890625 6.515625 -1.703125 7.421875 -1.703125 C 8.472656 -1.703125 9.34375 -1.972656 10.03125 -2.515625 C 10.726562 -3.066406 11.078125 -3.8125 11.078125 -4.75 C 11.078125 -5.519531 10.820312 -6.128906 10.3125 -6.578125 C 9.8125 -7.035156 9.164062 -7.347656 8.375 -7.515625 L 5.921875 -7.96875 C 3.097656 -8.59375 1.6875 -10.078125 1.6875 -12.421875 C 1.6875 -13.390625 1.914062 -14.234375 2.375 -14.953125 C 2.84375 -15.671875 3.488281 -16.226562 4.3125 -16.625 C 5.144531 -17.019531 6.109375 -17.21875 7.203125 -17.21875 C 8.429688 -17.21875 9.488281 -16.96875 10.375 -16.46875 C 11.257812 -15.96875 11.925781 -15.320312 12.375 -14.53125 C 12.820312 -13.738281 13.046875 -12.914062 13.046875 -12.0625 L 13.046875 -11.96875 L 10.765625 -11.96875 L 10.765625 -12.046875 C 10.765625 -12.523438 10.644531 -13.015625 10.40625 -13.515625 C 10.175781 -14.023438 9.789062 -14.460938 9.25 -14.828125 C 8.71875 -15.203125 8.007812 -15.390625 7.125 -15.390625 C 6.113281 -15.390625 5.304688 -15.109375 4.703125 -14.546875 C 4.097656 -13.984375 3.796875 -13.285156 3.796875 -12.453125 C 3.796875 -11.742188 4.03125 -11.164062 4.5 -10.71875 C 4.96875 -10.269531 5.601562 -9.960938 6.40625 -9.796875 L 8.625 -9.359375 C 11.71875 -8.734375 13.265625 -7.21875 13.265625 -4.8125 C 13.265625 -3.832031 13.019531 -2.960938 12.53125 -2.203125 C 12.039062 -1.453125 11.34375 -0.863281 10.4375 -0.4375 C 9.539062 -0.0195312 8.519531 0.1875 7.375 0.1875 Z M 7.375 0.1875 "/></g></g></g><g fill="#ffffff" fill-opacity="1"><g transform="translate(86.659864, 197.999987)"><g><path d="M 6.3125 0.03125 L 6.3125 -6.09375 L 0.8125 -16.859375 L 3.078125 -16.859375 L 7.265625 -8.421875 L 7.4375 -8.421875 L 11.609375 -16.859375 L 13.875 -16.859375 L 8.40625 -6.09375 L 8.40625 0 Z M 6.3125 0.03125 "/></g></g></g><g fill="#ffffff" fill-opacity="1"><g transform="translate(103.276981, 197.999987)"><g><path d="M 1.8125 -16.859375 L 4.140625 -16.859375 L 13.171875 -3.328125 L 13.265625 -3.328125 L 13.265625 -16.859375 L 15.3125 -16.859375 L 15.3125 0 L 12.953125 0 L 3.953125 -13.34375 L 3.859375 -13.34375 L 3.859375 0 L 1.8125 0 Z M 1.8125 -16.859375 "/></g></g></g><g fill="#ffffff" fill-opacity="1"><g transform="translate(122.230044, 197.999987)"><g><path d="M 13.078125 -14.984375 L 8.109375 -14.984375 L 8.109375 0 L 6.046875 0 L 6.046875 -14.984375 L 1.078125 -14.984375 L 1.078125 -16.859375 L 13.078125 -16.859375 Z M 13.078125 -14.984375 "/></g></g></g><g fill="#ffffff" fill-opacity="1"><g transform="translate(138.245111, 197.999987)"><g><path d="M 14.546875 -16.859375 L 14.546875 0 L 12.453125 0 L 12.453125 -7.625 L 3.875 -7.625 L 3.875 0 L 1.8125 0 L 1.8125 -16.859375 L 3.875 -16.859375 L 3.875 -9.3125 L 12.453125 -9.3125 L 12.453125 -16.859375 Z M 14.546875 -16.859375 "/></g></g></g><g fill="#ffffff" fill-opacity="1"><g transform="translate(156.427552, 197.999987)"><g><path d="M 1.875 -16.859375 L 3.96875 -16.859375 L 3.96875 0 L 1.875 0 Z M 1.875 -16.859375 "/></g></g></g><g fill="#ffffff" fill-opacity="1"><g transform="translate(164.110268, 197.999987)"><g><path d="M 11.625 -4.90625 L 4.765625 -4.90625 L 2.984375 0 L 0.859375 0 L 7.203125 -16.859375 L 9.171875 -16.859375 L 15.546875 0 L 13.4375 0 Z M 11.03125 -6.578125 L 8.203125 -14.203125 L 8.109375 -14.203125 L 5.375 -6.578125 Z M 11.03125 -6.578125 "/></g></g></g><g fill="#000000" fill-opacity="1"><g transform="translate(202.9423, 200.249987)"><g><path d="M 8.734375 0.25 C 7.160156 0.25 5.796875 -0.0546875 4.640625 -0.671875 C 3.492188 -1.285156 2.625 -2.09375 2.03125 -3.09375 C 1.445312 -4.101562 1.15625 -5.148438 1.15625 -6.234375 L 1.15625 -6.46875 L 5.953125 -6.46875 L 5.953125 -6.265625 C 5.953125 -5.585938 6.195312 -4.96875 6.6875 -4.40625 C 7.175781 -3.84375 7.890625 -3.5625 8.828125 -3.5625 C 9.628906 -3.5625 10.269531 -3.765625 10.75 -4.171875 C 11.238281 -4.585938 11.484375 -5.132812 11.484375 -5.8125 C 11.484375 -6.414062 11.269531 -6.898438 10.84375 -7.265625 C 10.414062 -7.628906 9.890625 -7.875 9.265625 -8 L 7.03125 -8.453125 C 5.71875 -8.753906 4.488281 -9.316406 3.34375 -10.140625 C 2.195312 -10.960938 1.625 -12.3125 1.625 -14.1875 C 1.625 -15.40625 1.921875 -16.453125 2.515625 -17.328125 C 3.109375 -18.210938 3.925781 -18.890625 4.96875 -19.359375 C 6.019531 -19.828125 7.210938 -20.0625 8.546875 -20.0625 C 10.054688 -20.0625 11.363281 -19.769531 12.46875 -19.1875 C 13.570312 -18.601562 14.40625 -17.847656 14.96875 -16.921875 C 15.53125 -15.992188 15.8125 -15.023438 15.8125 -14.015625 L 15.8125 -13.875 L 11.015625 -13.875 L 11.015625 -13.96875 C 11.015625 -14.5625 10.800781 -15.113281 10.375 -15.625 C 9.957031 -16.144531 9.289062 -16.40625 8.375 -16.40625 C 7.65625 -16.40625 7.085938 -16.207031 6.671875 -15.8125 C 6.253906 -15.425781 6.046875 -14.910156 6.046875 -14.265625 C 6.046875 -13.648438 6.273438 -13.164062 6.734375 -12.8125 C 7.203125 -12.457031 7.765625 -12.210938 8.421875 -12.078125 L 10.703125 -11.578125 C 12.179688 -11.253906 13.441406 -10.648438 14.484375 -9.765625 C 15.535156 -8.890625 16.0625 -7.609375 16.0625 -5.921875 C 16.0625 -4.691406 15.742188 -3.609375 15.109375 -2.671875 C 14.472656 -1.734375 13.597656 -1.007812 12.484375 -0.5 C 11.367188 0 10.117188 0.25 8.734375 0.25 Z M 8.734375 0.25 "/></g></g></g><g fill="#000000" fill-opacity="1"><g transform="translate(219.929542, 200.249987)"><g><path d="M 15.671875 -15.84375 L 10.5 -15.84375 L 10.5 0 L 6.15625 0 L 6.15625 -15.84375 L 0.984375 -15.84375 L 0.984375 -19.671875 L 15.671875 -19.671875 Z M 15.671875 -15.84375 "/></g></g></g><g fill="#000000" fill-opacity="1"><g transform="translate(236.60792, 200.249987)"><g><path d="M 9.640625 0.28125 C 7.242188 0.28125 5.28125 -0.425781 3.75 -1.84375 C 2.21875 -3.257812 1.453125 -5.507812 1.453125 -8.59375 L 1.453125 -19.671875 L 5.8125 -19.671875 L 5.8125 -8.90625 C 5.8125 -5.570312 7.085938 -3.90625 9.640625 -3.90625 C 11.003906 -3.90625 11.972656 -4.363281 12.546875 -5.28125 C 13.128906 -6.195312 13.421875 -7.40625 13.421875 -8.90625 L 13.421875 -19.671875 L 17.78125 -19.671875 L 17.78125 -8.59375 C 17.78125 -5.507812 17.015625 -3.257812 15.484375 -1.84375 C 13.960938 -0.425781 12.015625 0.28125 9.640625 0.28125 Z M 9.640625 0.28125 "/></g></g></g><g fill="#000000" fill-opacity="1"><g transform="translate(255.841409, 200.249987)"><g><path d="M 1.453125 -19.6875 L 9.21875 -19.6875 C 10.957031 -19.6875 12.488281 -19.296875 13.8125 -18.515625 C 15.144531 -17.742188 16.179688 -16.625 16.921875 -15.15625 C 17.660156 -13.6875 18.03125 -11.929688 18.03125 -9.890625 C 18.03125 -7.804688 17.65625 -6.023438 16.90625 -4.546875 C 16.15625 -3.066406 15.109375 -1.941406 13.765625 -1.171875 C 12.429688 -0.410156 10.894531 -0.03125 9.15625 -0.03125 L 1.453125 -0.03125 Z M 8.34375 -3.96875 C 9.875 -3.96875 11.085938 -4.40625 11.984375 -5.28125 C 12.890625 -6.164062 13.34375 -7.703125 13.34375 -9.890625 C 13.34375 -12.078125 12.894531 -13.609375 12 -14.484375 C 11.113281 -15.367188 9.894531 -15.8125 8.34375 -15.8125 L 5.703125 -15.8125 L 5.703125 -3.96875 Z M 8.34375 -3.96875 "/></g></g></g><g fill="#000000" fill-opacity="1"><g transform="translate(274.850273, 200.249987)"><g><path d="M 1.65625 -19.671875 L 6.0625 -19.671875 L 6.0625 0 L 1.65625 0 Z M 1.65625 -19.671875 "/></g></g></g><g fill="#000000" fill-opacity="1"><g transform="translate(282.599822, 200.249987)"><g><path d="M 10.140625 0.25 C 8.171875 0.25 6.503906 -0.203125 5.140625 -1.109375 C 3.773438 -2.015625 2.75 -3.226562 2.0625 -4.75 C 1.382812 -6.28125 1.046875 -7.972656 1.046875 -9.828125 C 1.046875 -11.679688 1.390625 -13.382812 2.078125 -14.9375 C 2.773438 -16.5 3.804688 -17.742188 5.171875 -18.671875 C 6.535156 -19.597656 8.191406 -20.0625 10.140625 -20.0625 C 12.046875 -20.0625 13.675781 -19.601562 15.03125 -18.6875 C 16.394531 -17.769531 17.414062 -16.523438 18.09375 -14.953125 C 18.78125 -13.390625 19.125 -11.675781 19.125 -9.8125 C 19.125 -7.9375 18.78125 -6.234375 18.09375 -4.703125 C 17.414062 -3.179688 16.394531 -1.972656 15.03125 -1.078125 C 13.675781 -0.191406 12.046875 0.25 10.140625 0.25 Z M 10.109375 -3.65625 C 11.492188 -3.65625 12.566406 -4.242188 13.328125 -5.421875 C 14.085938 -6.597656 14.46875 -8.078125 14.46875 -9.859375 C 14.46875 -11.617188 14.09375 -13.109375 13.34375 -14.328125 C 12.59375 -15.546875 11.515625 -16.15625 10.109375 -16.15625 C 9.160156 -16.15625 8.351562 -15.863281 7.6875 -15.28125 C 7.019531 -14.695312 6.519531 -13.925781 6.1875 -12.96875 C 5.863281 -12.019531 5.703125 -10.984375 5.703125 -9.859375 C 5.703125 -8.117188 6.082031 -6.648438 6.84375 -5.453125 C 7.601562 -4.253906 8.691406 -3.65625 10.109375 -3.65625 Z M 10.109375 -3.65625 "/></g></g></g></svg>